<?xml version="1.0" standalone="no"?>
<!DOCTYPE svg PUBLIC "-//W3C//DTD SVG 20010904//EN"
 "http://www.w3.org/TR/2001/REC-SVG-20010904/DTD/svg10.dtd">
<svg version="1.0" xmlns="http://www.w3.org/2000/svg"
 width="1280.000000pt" height="868.000000pt" viewBox="0 0 1280.000000 868.000000"
 preserveAspectRatio="xMidYMid meet">
<g transform="translate(0.000000,868.000000) scale(0.100000,-0.100000)"
fill="#000000" stroke="none">
<path d="M11260 8658 c-64 -20 -66 -22 -405 -358 -187 -185 -1404 -1401 -2703
-2701 l-2364 -2364 -487 -945 c-268 -520 -639 -1239 -825 -1599 -185 -359
-335 -655 -332 -658 2 -3 127 58 278 135 518 266 1605 820 2273 1160 l670 342
2696 2697 2697 2698 21 64 c27 82 26 91 -4 214 -62 246 -246 530 -524 807
-272 272 -533 442 -774 505 -114 29 -131 30 -217 3z"/>
</g>
</svg>
